<?xml version="1.0" encoding="utf-8"?>
<!-- Generator: Adobe Illustrator 26.0.2, SVG Export Plug-In . SVG Version: 6.00 Build 0)  -->
<svg version="1.1" id="Layer_1" xmlns="http://www.w3.org/2000/svg" xmlns:xlink="http://www.w3.org/1999/xlink" x="0px" y="0px"
	 viewBox="0 0 676 217" style="enable-background:new 0 0 676 217;" xml:space="preserve">
<style type="text/css">
	.st0{fill:url(#SVGID_1_);}
	.st1{fill:url(#SVGID_00000013193866928872936780000008680589794287952276_);}
	.st2{fill:#D4E530;}
	.st3{fill:url(#SVGID_00000105420229911029343400000002161762504013440914_);}
	.st4{fill:url(#SVGID_00000069386187679667951030000004445692504607619482_);}
	.st5{fill:url(#SVGID_00000174580888874089338500000004894480840115194752_);}
	.st6{fill:url(#SVGID_00000024720595419951507960000007956637548131108008_);}
	.st7{fill:url(#SVGID_00000109003694263433295550000011256270178247265708_);}
	.st8{filter:url(#Adobe_OpacityMaskFilter);}
	.st9{filter:url(#Adobe_OpacityMaskFilter_00000054228061062420615010000000346286098244933017_);}
	
		.st10{mask:url(#SVGID_00000029758128260183833530000012337244683725833397_);fill:url(#SVGID_00000098942564521771352140000011902905178127389873_);}
	.st11{fill:url(#SVGID_00000070808377740020477490000011409677980827210624_);}
	.st12{filter:url(#Adobe_OpacityMaskFilter_00000132076372069257309940000002806360999046839972_);}
	.st13{filter:url(#Adobe_OpacityMaskFilter_00000130646136601883186600000006721737355746274466_);}
	
		.st14{mask:url(#SVGID_00000146487003027181013760000009725582986496782209_);fill:url(#SVGID_00000031913680252265064640000002955210568633927322_);}
	.st15{fill:url(#SVGID_00000157278429020445168750000002527741907896144259_);}
	.st16{filter:url(#Adobe_OpacityMaskFilter_00000013163058113735835830000010704413568225275060_);}
	.st17{filter:url(#Adobe_OpacityMaskFilter_00000034069239805325178490000013492728254408302479_);}
	
		.st18{mask:url(#SVGID_00000000913792472827577030000005223334829728860817_);fill:url(#SVGID_00000005246317254467333740000017765075821212708765_);}
	.st19{fill:url(#SVGID_00000079468943957245674490000002559149498699009944_);}
	.st20{filter:url(#Adobe_OpacityMaskFilter_00000176743294168839028720000018345033264975535757_);}
	.st21{filter:url(#Adobe_OpacityMaskFilter_00000125569337448556728960000010506407375967054498_);}
	
		.st22{mask:url(#SVGID_00000134233353105017773920000002887226892487188379_);fill:url(#SVGID_00000049905995498553807810000010823015798577038476_);}
	.st23{fill:url(#SVGID_00000125604719388321425260000012949314978200083621_);}
	.st24{filter:url(#Adobe_OpacityMaskFilter_00000163768941690438924540000012207408056328820135_);}
	.st25{filter:url(#Adobe_OpacityMaskFilter_00000010992169262946899120000015571110020298727052_);}
	
		.st26{mask:url(#SVGID_00000066481695605262169660000001725911285652235404_);fill:url(#SVGID_00000067237977432440540190000001129424614890454714_);}
	.st27{fill:url(#SVGID_00000149370017984157822690000002001811876396556947_);}
	.st28{filter:url(#Adobe_OpacityMaskFilter_00000084528703983561103890000009849818976616960131_);}
	.st29{filter:url(#Adobe_OpacityMaskFilter_00000103979007617092437990000013816212074884833944_);}
	
		.st30{mask:url(#SVGID_00000063591895221814407710000015830535794416753063_);fill:url(#SVGID_00000024704764337404448840000014610370204678055569_);}
	.st31{fill:url(#SVGID_00000000927960499125786490000006858577204366964669_);}
	.st32{filter:url(#Adobe_OpacityMaskFilter_00000085943755670622053990000010204683619414301331_);}
	.st33{filter:url(#Adobe_OpacityMaskFilter_00000014610405374021125740000006329371846385772184_);}
	
		.st34{mask:url(#SVGID_00000042716630731174873670000017369121945505725056_);fill:url(#SVGID_00000124149369420129962150000010405971425851318915_);}
	.st35{fill:url(#SVGID_00000057121238312525412420000014478300022849950129_);}
	.st36{fill:#0685B2;}
	.st37{font-family:'GillSans';}
	.st38{font-size:156.4681px;}
</style>
<symbol  id="New_Symbol" viewBox="-23 -39.83 46 79.66">
	<linearGradient id="SVGID_1_" gradientUnits="userSpaceOnUse" x1="-1.2224" y1="39.9319" x2="0.7776" y2="-25.4015">
		<stop  offset="0" style="stop-color:#F2F02F"/>
		<stop  offset="1" style="stop-color:#D4E530"/>
	</linearGradient>
	<ellipse class="st0" cx="0" cy="0" rx="23" ry="39.83"/>
</symbol>
<symbol  id="New_Symbol_2" viewBox="-23 -39.83 46 79.66">
	
		<linearGradient id="SVGID_00000077296434200918178700000009819372534157366699_" gradientUnits="userSpaceOnUse" x1="-1.2224" y1="39.9319" x2="0.7776" y2="-25.4015">
		<stop  offset="0" style="stop-color:#65DD3A"/>
		<stop  offset="1" style="stop-color:#1EC17F"/>
	</linearGradient>
	<ellipse style="fill:url(#SVGID_00000077296434200918178700000009819372534157366699_);" cx="0" cy="0" rx="23" ry="39.83"/>
</symbol>
<g>
	<path class="st2" d="M53.58,179.9c-0.65,0-1.31-0.03-1.97-0.11c-10.03-1.06-17.33-10.09-16.26-20.12L46.43,58.82
		c0.82-7.75,6.5-14.14,14.12-15.88c7.62-1.74,15.51,1.55,19.63,8.2l21.96,35.43c1.82,2.93,0.91,6.79-2.02,8.61
		c-2.93,1.82-6.79,0.91-8.61-2.02L69.54,57.72c-1.3-2.1-3.8-3.15-6.22-2.6c-2.41,0.55-4.21,2.58-4.47,5.04L47.77,161.01
		c-0.33,3.15,1.98,6.01,5.15,6.35c1.53,0.16,3.05-0.28,4.25-1.25c1.2-0.97,1.96-2.36,2.12-3.9l7.38-65.92
		c0.3-2.65,2.24-4.82,4.84-5.4c2.6-0.59,5.28,0.54,6.69,2.8l23.65,38.16c1.06,1.72,2.92,2.74,4.98,2.74c0,0,0.01,0,0.01,0
		c1.98-0.01,3.86-1.08,4.9-2.8l22.58-37.38c1.39-2.29,4.08-3.45,6.7-2.87c2.62,0.58,4.58,2.77,4.86,5.43l7.05,65.23
		c0.34,3.18,3.17,5.51,6.38,5.16c3.17-0.34,5.48-3.2,5.15-6.37L153.64,60.17c-0.26-2.48-2.07-4.51-4.51-5.05
		c-2.43-0.54-4.93,0.53-6.22,2.66L112,108.95c-1.78,2.95-5.63,3.9-8.58,2.12c-2.95-1.79-3.9-5.63-2.12-8.58l30.92-51.17
		c4.06-6.73,11.95-10.1,19.63-8.4c7.68,1.71,13.4,8.11,14.23,15.93l10.82,100.82c0.52,4.87-0.89,9.64-3.96,13.44
		c-3.07,3.8-7.44,6.18-12.3,6.69c-0.65,0.07-1.3,0.1-1.94,0.1c-9.37,0-17.19-7.04-18.18-16.37l-5.06-46.81l-13.01,21.53
		c-3.27,5.41-9.23,8.8-15.56,8.84c-0.01,0-0.02,0-0.02,0c-6.44,0-12.27-3.24-15.63-8.66l-14.13-22.8l-5.37,47.94
		c-0.51,4.82-2.89,9.19-6.69,12.27C61.75,178.49,57.74,179.9,53.58,179.9z"/>
	
		<linearGradient id="SVGID_00000058552950139481421150000017360116250613651121_" gradientUnits="userSpaceOnUse" x1="103.9279" y1="95.2459" x2="70.2448" y2="52.1149">
		<stop  offset="0" style="stop-color:#F2F02F"/>
		<stop  offset="1" style="stop-color:#D4E530"/>
	</linearGradient>
	<path style="fill:url(#SVGID_00000058552950139481421150000017360116250613651121_);" d="M69.54,57.72L91.5,93.15
		c1.82,2.94,5.67,3.84,8.61,2.02c2.93-1.82,3.84-5.67,2.02-8.61L80.17,51.13c-3.48-5.61-9.63-8.83-16.05-8.65V55
		C66.28,54.81,68.38,55.84,69.54,57.72z"/>
	
		<linearGradient id="SVGID_00000158746708725532556020000005636451541242347164_" gradientUnits="userSpaceOnUse" x1="166.1802" y1="159.1172" x2="154.2679" y2="61.7645">
		<stop  offset="0" style="stop-color:#1EC17F"/>
		<stop  offset="1" style="stop-color:#22ABE2"/>
	</linearGradient>
	<path style="fill:url(#SVGID_00000158746708725532556020000005636451541242347164_);" d="M176.9,159.66L166.07,58.84
		c-0.83-7.82-6.54-14.22-14.23-15.93c-1.1-0.25-2.21-0.38-3.31-0.42v12.53c0.2,0.02,0.4,0.05,0.6,0.1c2.43,0.54,4.24,2.57,4.51,5.05
		l10.82,100.82c0.34,3.18-1.97,6.04-5.15,6.37c-0.98,0.11-1.92-0.04-2.77-0.38v12.79c0.7,0.08,1.42,0.13,2.14,0.13
		c0.64,0,1.3-0.03,1.94-0.1c4.86-0.52,9.23-2.89,12.3-6.69C176,169.3,177.41,164.53,176.9,159.66z"/>
	
		<linearGradient id="SVGID_00000100378115153914525180000003260383021913915282_" gradientUnits="userSpaceOnUse" x1="55.7408" y1="60.6485" x2="45.0606" y2="163.341">
		<stop  offset="0" style="stop-color:#D4E530"/>
		<stop  offset="1" style="stop-color:#65DD3A"/>
	</linearGradient>
	<path style="fill:url(#SVGID_00000100378115153914525180000003260383021913915282_);" d="M52.93,167.36
		c-3.18-0.34-5.49-3.2-5.15-6.35L58.86,60.16c0.26-2.46,2.06-4.49,4.47-5.04c0.26-0.06,0.53-0.1,0.79-0.12V42.48
		c-1.19,0.03-2.38,0.18-3.57,0.45c-7.62,1.74-13.3,8.13-14.12,15.88L35.34,159.67c-1.06,10.03,6.23,19.06,16.26,20.12
		c0.61,0.07,1.22,0.1,1.83,0.1v-12.5C53.27,167.39,53.1,167.38,52.93,167.36z"/>
	
		<linearGradient id="SVGID_00000027570452556718095550000016035695289669685422_" gradientUnits="userSpaceOnUse" x1="138.7061" y1="53.7637" x2="106.0499" y2="112.9148">
		<stop  offset="0" style="stop-color:#22ABE2"/>
		<stop  offset="1" style="stop-color:#89E1FF"/>
	</linearGradient>
	<path style="fill:url(#SVGID_00000027570452556718095550000016035695289669685422_);" d="M132.22,51.31l-30.92,51.17
		c-1.79,2.96-0.84,6.8,2.12,8.58c2.96,1.79,6.8,0.84,8.58-2.12l30.92-51.18c1.18-1.95,3.38-3.01,5.61-2.76V42.49
		C141.98,42.25,135.7,45.55,132.22,51.31z"/>
	
		<linearGradient id="SVGID_00000099664424824602618210000000049520567571494798_" gradientUnits="userSpaceOnUse" x1="66.3779" y1="135.3144" x2="142.5827" y2="135.3144">
		<stop  offset="0" style="stop-color:#65DD3A"/>
		<stop  offset="1" style="stop-color:#1EC17F"/>
	</linearGradient>
	<path style="fill:url(#SVGID_00000099664424824602618210000000049520567571494798_);" d="M152.94,162.2l-7.05-65.23
		c-0.29-2.67-2.24-4.85-4.86-5.43c-2.62-0.58-5.32,0.58-6.7,2.87l-22.58,37.38c-1.04,1.71-2.92,2.79-4.9,2.8c0,0-0.01,0-0.01,0
		c-2.05,0-3.91-1.02-4.98-2.74L78.21,93.69c-1.4-2.26-4.09-3.39-6.69-2.8c-2.6,0.59-4.54,2.75-4.84,5.4l-7.38,65.92
		c-0.16,1.54-0.92,2.92-2.12,3.9c-1.07,0.86-2.38,1.31-3.74,1.28v12.5c0.05,0,0.09,0,0.14,0c4.16,0,8.18-1.41,11.46-4.07
		c3.8-3.07,6.18-7.44,6.69-12.27l5.37-47.94l14.13,22.8c3.36,5.42,9.19,8.66,15.63,8.66c0.01,0,0.02,0,0.02,0
		c6.33-0.04,12.29-3.42,15.56-8.84l13.01-21.53l5.06,46.81c0.91,8.61,7.64,15.26,16.04,16.24v-12.79
		C154.61,166.2,153.17,164.41,152.94,162.2z"/>
	<defs>
		<filter id="Adobe_OpacityMaskFilter" filterUnits="userSpaceOnUse" x="47.67" y="120.43" width="28.89" height="55.68">
			<feFlood  style="flood-color:white;flood-opacity:1" result="back"/>
			<feBlend  in="SourceGraphic" in2="back" mode="normal"/>
		</filter>
	</defs>
	
		<mask maskUnits="userSpaceOnUse" x="47.67" y="120.43" width="28.89" height="55.68" id="SVGID_00000056403843900548720640000005689007565436410288_">
		<g class="st8">
			<defs>
				
					<filter id="Adobe_OpacityMaskFilter_00000026867982785158459520000014159395752145098887_" filterUnits="userSpaceOnUse" x="47.67" y="120.43" width="28.89" height="55.68">
					<feFlood  style="flood-color:white;flood-opacity:1" result="back"/>
					<feBlend  in="SourceGraphic" in2="back" mode="normal"/>
				</filter>
			</defs>
			
				<mask maskUnits="userSpaceOnUse" x="47.67" y="120.43" width="28.89" height="55.68" id="SVGID_00000056403843900548720640000005689007565436410288_">
				<g style="filter:url(#Adobe_OpacityMaskFilter_00000026867982785158459520000014159395752145098887_);">
				</g>
			</mask>
			
				<linearGradient id="SVGID_00000039842470478972716270000006636085867640174260_" gradientUnits="userSpaceOnUse" x1="65.7155" y1="124.5328" x2="56.4732" y2="182.7593">
				<stop  offset="0" style="stop-color:#000000"/>
				<stop  offset="1" style="stop-color:#FFFFFF"/>
			</linearGradient>
			
				<path style="mask:url(#SVGID_00000056403843900548720640000005689007565436410288_);fill:url(#SVGID_00000039842470478972716270000006636085867640174260_);" d="
				M63.98,120.43l-4.68,41.78c-0.16,1.54-0.92,2.92-2.12,3.9c-1.2,0.97-2.72,1.42-4.25,1.25c-3.18-0.34-5.49-3.2-5.15-6.35
				c-1.86,21.03,22.12,18.93,24.15,0.84l4.64-41.42H63.98z"/>
		</g>
	</mask>
	
		<linearGradient id="SVGID_00000146485941996504188130000014549077590355806103_" gradientUnits="userSpaceOnUse" x1="65.7155" y1="124.5328" x2="56.4732" y2="182.7593">
		<stop  offset="0" style="stop-color:#FFFFFF"/>
		<stop  offset="1" style="stop-color:#229FDC"/>
	</linearGradient>
	<path style="fill:url(#SVGID_00000146485941996504188130000014549077590355806103_);" d="M63.98,120.43l-4.68,41.78
		c-0.16,1.54-0.92,2.92-2.12,3.9c-1.2,0.97-2.72,1.42-4.25,1.25c-3.18-0.34-5.49-3.2-5.15-6.35c-1.86,21.03,22.12,18.93,24.15,0.84
		l4.64-41.42H63.98z"/>
	<defs>
		
			<filter id="Adobe_OpacityMaskFilter_00000126286512801901040840000006209478257927082398_" filterUnits="userSpaceOnUse" x="40.65" y="48.97" width="28.9" height="62.42">
			<feFlood  style="flood-color:white;flood-opacity:1" result="back"/>
			<feBlend  in="SourceGraphic" in2="back" mode="normal"/>
		</filter>
	</defs>
	
		<mask maskUnits="userSpaceOnUse" x="40.65" y="48.97" width="28.9" height="62.42" id="SVGID_00000169520126203283240320000015510561880578055871_">
		<g style="filter:url(#Adobe_OpacityMaskFilter_00000126286512801901040840000006209478257927082398_);">
			<defs>
				
					<filter id="Adobe_OpacityMaskFilter_00000044176705144922466750000001260866083681751198_" filterUnits="userSpaceOnUse" x="40.65" y="48.97" width="28.9" height="62.42">
					<feFlood  style="flood-color:white;flood-opacity:1" result="back"/>
					<feBlend  in="SourceGraphic" in2="back" mode="normal"/>
				</filter>
			</defs>
			
				<mask maskUnits="userSpaceOnUse" x="40.65" y="48.97" width="28.9" height="62.42" id="SVGID_00000169520126203283240320000015510561880578055871_">
				<g style="filter:url(#Adobe_OpacityMaskFilter_00000044176705144922466750000001260866083681751198_);">
				</g>
			</mask>
			
				<linearGradient id="SVGID_00000084488768245910965010000004139247677504530339_" gradientUnits="userSpaceOnUse" x1="52.4258" y1="109.8342" x2="58.1766" y2="55.4072">
				<stop  offset="0" style="stop-color:#000000"/>
				<stop  offset="1" style="stop-color:#FFFFFF"/>
			</linearGradient>
			
				<path style="mask:url(#SVGID_00000169520126203283240320000015510561880578055871_);fill:url(#SVGID_00000084488768245910965010000004139247677504530339_);" d="
				M53.23,111.39l5.63-51.23c0.26-2.46,2.06-4.49,4.47-5.04c2.42-0.55,4.91,0.49,6.22,2.6c-9.21-14.71-21.21-9.22-23.47,4.3
				l-5.43,49.37H53.23z"/>
		</g>
	</mask>
	
		<linearGradient id="SVGID_00000011753770137263624900000017739437406440016565_" gradientUnits="userSpaceOnUse" x1="52.4258" y1="109.8342" x2="58.1766" y2="55.4072">
		<stop  offset="0" style="stop-color:#FFFFFF"/>
		<stop  offset="1" style="stop-color:#B1D700"/>
	</linearGradient>
	<path style="fill:url(#SVGID_00000011753770137263624900000017739437406440016565_);" d="M53.23,111.39l5.63-51.23
		c0.26-2.46,2.06-4.49,4.47-5.04c2.42-0.55,4.91,0.49,6.22,2.6c-9.21-14.71-21.21-9.22-23.47,4.3l-5.43,49.37H53.23z"/>
	<defs>
		
			<filter id="Adobe_OpacityMaskFilter_00000044899456467889725550000013677904309591917222_" filterUnits="userSpaceOnUse" x="142.92" y="48.15" width="28.53" height="60.77">
			<feFlood  style="flood-color:white;flood-opacity:1" result="back"/>
			<feBlend  in="SourceGraphic" in2="back" mode="normal"/>
		</filter>
	</defs>
	
		<mask maskUnits="userSpaceOnUse" x="142.92" y="48.15" width="28.53" height="60.77" id="SVGID_00000077295264491194239600000006278826444809123981_">
		<g style="filter:url(#Adobe_OpacityMaskFilter_00000044899456467889725550000013677904309591917222_);">
			<defs>
				
					<filter id="Adobe_OpacityMaskFilter_00000060015068703645197880000014174300376247638919_" filterUnits="userSpaceOnUse" x="142.92" y="48.15" width="28.53" height="60.77">
					<feFlood  style="flood-color:white;flood-opacity:1" result="back"/>
					<feBlend  in="SourceGraphic" in2="back" mode="normal"/>
				</filter>
			</defs>
			
				<mask maskUnits="userSpaceOnUse" x="142.92" y="48.15" width="28.53" height="60.77" id="SVGID_00000077295264491194239600000006278826444809123981_">
				<g style="filter:url(#Adobe_OpacityMaskFilter_00000060015068703645197880000014174300376247638919_);">
				</g>
			</mask>
			
				<linearGradient id="SVGID_00000041984409597285526980000000884115768989982378_" gradientUnits="userSpaceOnUse" x1="159.6389" y1="108.1993" x2="154.5042" y2="56.2368">
				<stop  offset="0" style="stop-color:#000000"/>
				<stop  offset="1" style="stop-color:#FFFFFF"/>
			</linearGradient>
			
				<path style="mask:url(#SVGID_00000077295264491194239600000006278826444809123981_);fill:url(#SVGID_00000041984409597285526980000000884115768989982378_);" d="
				M149.13,55.11c2.43,0.54,4.24,2.57,4.51,5.05l5.23,48.76h12.58l-5.38-50.09c-0.02-0.2-0.05-0.39-0.07-0.59
				c-1.57-11.02-13.43-15.52-23.08-0.48C144.2,55.64,146.71,54.57,149.13,55.11z"/>
		</g>
	</mask>
	
		<linearGradient id="SVGID_00000116194038742714813490000011164144763625257142_" gradientUnits="userSpaceOnUse" x1="159.6389" y1="108.1993" x2="154.5042" y2="56.2368">
		<stop  offset="0" style="stop-color:#FFFFFF"/>
		<stop  offset="1" style="stop-color:#229FDC"/>
	</linearGradient>
	<path style="fill:url(#SVGID_00000116194038742714813490000011164144763625257142_);" d="M149.13,55.11
		c2.43,0.54,4.24,2.57,4.51,5.05l5.23,48.76h12.58l-5.38-50.09c-0.02-0.2-0.05-0.39-0.07-0.59c-1.57-11.02-13.43-15.52-23.08-0.48
		C144.2,55.64,146.71,54.57,149.13,55.11z"/>
	<defs>
		
			<filter id="Adobe_OpacityMaskFilter_00000167369237908255693860000005285240381239543945_" filterUnits="userSpaceOnUse" x="153.06" y="117.35" width="23.75" height="57.06">
			<feFlood  style="flood-color:white;flood-opacity:1" result="back"/>
			<feBlend  in="SourceGraphic" in2="back" mode="normal"/>
		</filter>
	</defs>
	
		<mask maskUnits="userSpaceOnUse" x="153.06" y="117.35" width="23.75" height="57.06" id="SVGID_00000106860907387577027320000006479356857124120236_">
		<g style="filter:url(#Adobe_OpacityMaskFilter_00000167369237908255693860000005285240381239543945_);">
			<defs>
				
					<filter id="Adobe_OpacityMaskFilter_00000046297536102147907560000007693900609308897465_" filterUnits="userSpaceOnUse" x="153.06" y="117.35" width="23.75" height="57.06">
					<feFlood  style="flood-color:white;flood-opacity:1" result="back"/>
					<feBlend  in="SourceGraphic" in2="back" mode="normal"/>
				</filter>
			</defs>
			
				<mask maskUnits="userSpaceOnUse" x="153.06" y="117.35" width="23.75" height="57.06" id="SVGID_00000106860907387577027320000006479356857124120236_">
				<g style="filter:url(#Adobe_OpacityMaskFilter_00000046297536102147907560000007693900609308897465_);">
				</g>
			</mask>
			
				<linearGradient id="SVGID_00000016790413769304942820000011762444434836852645_" gradientUnits="userSpaceOnUse" x1="161.9491" y1="124.4899" x2="166.8784" y2="184.873">
				<stop  offset="0" style="stop-color:#000000"/>
				<stop  offset="1" style="stop-color:#FFFFFF"/>
			</linearGradient>
			
				<path style="mask:url(#SVGID_00000106860907387577027320000006479356857124120236_);fill:url(#SVGID_00000016790413769304942820000011762444434836852645_);" d="
				M172.35,117.35h-12.57l4.68,43.64c0.34,3.18-1.97,6.04-5.15,6.37c-2.97,0.32-5.62-1.66-6.26-4.48
				c3.25,17.54,25.89,14.59,23.58-5.63L172.35,117.35z"/>
		</g>
	</mask>
	
		<linearGradient id="SVGID_00000176751308728637748320000005245519767930892714_" gradientUnits="userSpaceOnUse" x1="161.9491" y1="124.4899" x2="166.8784" y2="184.873">
		<stop  offset="0" style="stop-color:#FFFFFF"/>
		<stop  offset="1" style="stop-color:#229FDC"/>
	</linearGradient>
	<path style="fill:url(#SVGID_00000176751308728637748320000005245519767930892714_);" d="M172.35,117.35h-12.57l4.68,43.64
		c0.34,3.18-1.97,6.04-5.15,6.37c-2.97,0.32-5.62-1.66-6.26-4.48c3.25,17.54,25.89,14.59,23.58-5.63L172.35,117.35z"/>
	<defs>
		
			<filter id="Adobe_OpacityMaskFilter_00000173134743841486689150000009172864938648000431_" filterUnits="userSpaceOnUse" x="102.09" y="91.39" width="45.68" height="48.79">
			<feFlood  style="flood-color:white;flood-opacity:1" result="back"/>
			<feBlend  in="SourceGraphic" in2="back" mode="normal"/>
		</filter>
	</defs>
	
		<mask maskUnits="userSpaceOnUse" x="102.09" y="91.39" width="45.68" height="48.79" id="SVGID_00000120535209293797794060000004468160288548828053_">
		<g style="filter:url(#Adobe_OpacityMaskFilter_00000173134743841486689150000009172864938648000431_);">
			<defs>
				
					<filter id="Adobe_OpacityMaskFilter_00000040541396511205414030000015439684057870423221_" filterUnits="userSpaceOnUse" x="102.09" y="91.39" width="45.68" height="48.79">
					<feFlood  style="flood-color:white;flood-opacity:1" result="back"/>
					<feBlend  in="SourceGraphic" in2="back" mode="normal"/>
				</filter>
			</defs>
			
				<mask maskUnits="userSpaceOnUse" x="102.09" y="91.39" width="45.68" height="48.79" id="SVGID_00000120535209293797794060000004468160288548828053_">
				<g style="filter:url(#Adobe_OpacityMaskFilter_00000040541396511205414030000015439684057870423221_);">
				</g>
			</mask>
			
				<linearGradient id="SVGID_00000114763702900447714860000008179808821616197020_" gradientUnits="userSpaceOnUse" x1="136.272" y1="104.1164" x2="111.3176" y2="146.3231">
				<stop  offset="0" style="stop-color:#000000"/>
				<stop  offset="1" style="stop-color:#FFFFFF"/>
			</linearGradient>
			
				<path style="mask:url(#SVGID_00000120535209293797794060000004468160288548828053_);fill:url(#SVGID_00000114763702900447714860000008179808821616197020_);" d="
				M147.77,114.39l-1.88-17.43c-0.29-2.67-2.24-4.85-4.86-5.43c-2.62-0.58-5.32,0.58-6.7,2.87l-22.58,37.38
				c-1.04,1.71-2.92,2.79-4.9,2.8c0,0-0.01,0-0.01,0c-1.91,0-3.65-0.89-4.74-2.39c7.79,11.44,18.46,9.18,22.8,1.99l10.55-17.47
				C143.4,103.18,146.5,102.66,147.77,114.39z"/>
		</g>
	</mask>
	
		<linearGradient id="SVGID_00000052074084689207929960000016167209889397407880_" gradientUnits="userSpaceOnUse" x1="136.272" y1="104.1164" x2="111.3176" y2="146.3231">
		<stop  offset="0" style="stop-color:#FFFFFF"/>
		<stop  offset="1" style="stop-color:#229FDC"/>
	</linearGradient>
	<path style="fill:url(#SVGID_00000052074084689207929960000016167209889397407880_);" d="M147.77,114.39l-1.88-17.43
		c-0.29-2.67-2.24-4.85-4.86-5.43c-2.62-0.58-5.32,0.58-6.7,2.87l-22.58,37.38c-1.04,1.71-2.92,2.79-4.9,2.8c0,0-0.01,0-0.01,0
		c-1.91,0-3.65-0.89-4.74-2.39c7.79,11.44,18.46,9.18,22.8,1.99l10.55-17.47C143.4,103.18,146.5,102.66,147.77,114.39z"/>
	<defs>
		
			<filter id="Adobe_OpacityMaskFilter_00000075148294194633806020000011618281398518484650_" filterUnits="userSpaceOnUse" x="135.45" y="106.05" width="16.97" height="51.35">
			<feFlood  style="flood-color:white;flood-opacity:1" result="back"/>
			<feBlend  in="SourceGraphic" in2="back" mode="normal"/>
		</filter>
	</defs>
	
		<mask maskUnits="userSpaceOnUse" x="135.45" y="106.05" width="16.97" height="51.35" id="SVGID_00000173128869916469884460000004334093319319630722_">
		<g style="filter:url(#Adobe_OpacityMaskFilter_00000075148294194633806020000011618281398518484650_);">
			<defs>
				
					<filter id="Adobe_OpacityMaskFilter_00000139288296413666113460000016452028570123698060_" filterUnits="userSpaceOnUse" x="135.45" y="106.05" width="16.97" height="51.35">
					<feFlood  style="flood-color:white;flood-opacity:1" result="back"/>
					<feBlend  in="SourceGraphic" in2="back" mode="normal"/>
				</filter>
			</defs>
			
				<mask maskUnits="userSpaceOnUse" x="135.45" y="106.05" width="16.97" height="51.35" id="SVGID_00000173128869916469884460000004334093319319630722_">
				<g style="filter:url(#Adobe_OpacityMaskFilter_00000139288296413666113460000016452028570123698060_);">
				</g>
			</mask>
			
				<linearGradient id="SVGID_00000170968038043868459700000014805509561070583432_" gradientUnits="userSpaceOnUse" x1="145.5556" y1="154.0391" x2="140.3183" y2="99.2012">
				<stop  offset="0" style="stop-color:#000000"/>
				<stop  offset="1" style="stop-color:#FFFFFF"/>
			</linearGradient>
			
				<path style="mask:url(#SVGID_00000173128869916469884460000004334093319319630722_);fill:url(#SVGID_00000170968038043868459700000014805509561070583432_);" d="
				M152.42,157.4l-4.65-43c-1.27-11.73-4.38-11.22-12.32,2.33l4.39,40.67H152.42z"/>
		</g>
	</mask>
	
		<linearGradient id="SVGID_00000060736304087969914720000007476361019289133706_" gradientUnits="userSpaceOnUse" x1="145.5556" y1="154.0391" x2="140.3183" y2="99.2012">
		<stop  offset="0" style="stop-color:#FFFFFF"/>
		<stop  offset="1" style="stop-color:#229FDC"/>
	</linearGradient>
	<path style="fill:url(#SVGID_00000060736304087969914720000007476361019289133706_);" d="M152.42,157.4l-4.65-43
		c-1.27-11.73-4.38-11.22-12.32,2.33l4.39,40.67H152.42z"/>
	<defs>
		
			<filter id="Adobe_OpacityMaskFilter_00000152982595075208932650000004336345147473640081_" filterUnits="userSpaceOnUse" x="77.1" y="99.43" width="47.8" height="47.66">
			<feFlood  style="flood-color:white;flood-opacity:1" result="back"/>
			<feBlend  in="SourceGraphic" in2="back" mode="normal"/>
		</filter>
	</defs>
	
		<mask maskUnits="userSpaceOnUse" x="77.1" y="99.43" width="47.8" height="47.66" id="SVGID_00000160882336555831999640000005655835461870450322_">
		<g style="filter:url(#Adobe_OpacityMaskFilter_00000152982595075208932650000004336345147473640081_);">
			<defs>
				
					<filter id="Adobe_OpacityMaskFilter_00000002357664800496707560000003594760086039321496_" filterUnits="userSpaceOnUse" x="77.1" y="99.43" width="47.8" height="47.66">
					<feFlood  style="flood-color:white;flood-opacity:1" result="back"/>
					<feBlend  in="SourceGraphic" in2="back" mode="normal"/>
				</filter>
			</defs>
			
				<mask maskUnits="userSpaceOnUse" x="77.1" y="99.43" width="47.8" height="47.66" id="SVGID_00000160882336555831999640000005655835461870450322_">
				<g style="filter:url(#Adobe_OpacityMaskFilter_00000002357664800496707560000003594760086039321496_);">
				</g>
			</mask>
			
				<linearGradient id="SVGID_00000050645779343466470650000002958245394652774061_" gradientUnits="userSpaceOnUse" x1="105.8497" y1="133.7976" x2="78.1227" y2="100.5253">
				<stop  offset="0" style="stop-color:#000000"/>
				<stop  offset="1" style="stop-color:#FFFFFF"/>
			</linearGradient>
			
				<path style="mask:url(#SVGID_00000160882336555831999640000005655835461870450322_);fill:url(#SVGID_00000050645779343466470650000002958245394652774061_);" d="
				M102.09,132.2c-0.08-0.11-0.16-0.23-0.24-0.35l-18.11-29.22c-3.92-6.31-4.58-3.9-6.65,13.01l14.13,22.8
				c3.36,5.42,9.19,8.66,15.63,8.66c0.01,0,0.02,0,0.02,0c6.33-0.04,12.29-3.42,15.56-8.84l2.45-4.06
				C120.56,141.37,109.88,143.64,102.09,132.2z"/>
		</g>
	</mask>
	
		<linearGradient id="SVGID_00000008840195051441791550000012843523921097047959_" gradientUnits="userSpaceOnUse" x1="105.8497" y1="133.7976" x2="78.1227" y2="100.5253">
		<stop  offset="0" style="stop-color:#FFFFFF"/>
		<stop  offset="1" style="stop-color:#229FDC"/>
	</linearGradient>
	<path style="fill:url(#SVGID_00000008840195051441791550000012843523921097047959_);" d="M102.09,132.2
		c-0.08-0.11-0.16-0.23-0.24-0.35l-18.11-29.22c-3.92-6.31-4.58-3.9-6.65,13.01l14.13,22.8c3.36,5.42,9.19,8.66,15.63,8.66
		c0.01,0,0.02,0,0.02,0c6.33-0.04,12.29-3.42,15.56-8.84l2.45-4.06C120.56,141.37,109.88,143.64,102.09,132.2z"/>
	
		<use xlink:href="#New_Symbol"  width="46" height="79.66" x="-23" y="-39.83" transform="matrix(0.308 -0.2046 -0.2046 -0.308 46.7882 30.1835)" style="overflow:visible;"/>
	
		<use xlink:href="#New_Symbol_2"  width="46" height="79.66" x="-23" y="-39.83" transform="matrix(-0.0381 -0.2589 -0.2589 0.0381 39.3673 46.8476)" style="overflow:visible;"/>
	<text transform="matrix(1 0 0 1 182.5557 176.0938)" class="st36 st37 st38">obotics</text>
</g>
</svg>
